<svg xmlns="http://www.w3.org/2000/svg" viewBox="0 0 74.7 68.91"><defs><style>.cls-1{fill:#b1b1b1;}</style></defs><g id="레이어_2" data-name="레이어 2"><g id="Layer_1" data-name="Layer 1"><path class="cls-1" d="M73.25.78A2.6,2.6,0,0,0,71.92.42L54.37.27A2.72,2.72,0,0,0,51.81,2L38.22,35.82a17.06,17.06,0,0,1-10.11,9.82,16.3,16.3,0,0,1-4.63.88h0l-.93,0a1.8,1.8,0,0,1-.46-.1,1.69,1.69,0,0,1-1.18-1.62l0-41.92A2.72,2.72,0,0,0,18.22.13L3.34,0h0A2.74,2.74,0,0,0,.55,2.7L0,66a2.74,2.74,0,0,0,2.7,2.75l4.92,0L21,68.91h.27a41.25,41.25,0,0,0,6.19-.56c.36-.06.72-.14,1.07-.22l-.21.09a44.68,44.68,0,0,0,5.94-1.68c7.52-2.65,16.25-8,21.09-18.36L74.47,4.25A2.71,2.71,0,0,0,73.25.78Z"/></g></g></svg>