<svg width="17" height="17" viewBox="0 0 17 17" fill="none" xmlns="http://www.w3.org/2000/svg">
<path d="M7.64319 1.42372C8.03185 0.7779 8.96815 0.777901 9.35681 1.42372L11.4086 4.83304C11.5482 5.06505 11.7759 5.23052 12.0397 5.29162L15.9162 6.18942C16.6505 6.35949 16.9399 7.24996 16.4458 7.81917L13.8373 10.824C13.6598 11.0285 13.5728 11.2963 13.5963 11.566L13.9403 15.5302C14.0055 16.2812 13.248 16.8315 12.5539 16.5375L8.89009 14.9853C8.64076 14.8796 8.35924 14.8796 8.10991 14.9853L4.44605 16.5375C3.75202 16.8315 2.99454 16.2812 3.05971 15.5302L3.40375 11.566C3.42716 11.2963 3.34017 11.0285 3.16266 10.824L0.554233 7.81916C0.0601239 7.24996 0.349457 6.35949 1.08377 6.18942L4.96025 5.29162C5.22406 5.23052 5.45181 5.06505 5.59143 4.83304L7.64319 1.42372Z" fill="#FAC850"/>
</svg>
