<svg width="512" height="448" viewBox="0 0 512 448" fill="none" xmlns="http://www.w3.org/2000/svg">
<path d="M364 0C343.751 0.0235496 323.721 4.1954 305.146 12.2582C286.571 20.3211 269.846 32.1039 256 46.88C235.71 25.2249 209.378 10.1694 180.423 3.66817C151.469 -2.83309 121.228 -0.47989 93.628 10.4223C66.0276 21.3244 42.342 40.272 25.6459 64.8053C8.94991 89.3386 0.0146104 118.324 0 148C0 295.36 237.68 440 248 445.68C250.489 447.175 253.337 447.965 256.24 447.965C259.143 447.965 261.992 447.175 264.48 445.68C274.32 440 512 295.36 512 148C511.958 108.761 496.351 71.1412 468.605 43.395C440.859 15.6488 403.239 0.0423519 364 0ZM256 413.12C214.64 386.72 32 263.36 32 148C32.0205 123.36 39.8868 99.3658 54.4588 79.496C69.0308 59.6262 89.5514 44.9127 113.047 37.488C136.542 30.0633 161.791 30.3131 185.135 38.2012C208.478 46.0893 228.704 61.2058 242.88 81.36C244.357 83.4564 246.316 85.1671 248.592 86.3479C250.869 87.5288 253.396 88.1451 255.96 88.1451C258.524 88.1451 261.051 87.5288 263.328 86.3479C265.604 85.1671 267.563 83.4564 269.04 81.36C283.204 61.1711 303.434 46.0219 326.793 38.1117C350.152 30.2014 375.425 29.9417 398.941 37.3704C422.458 44.799 442.995 59.5294 457.571 79.4229C472.147 99.3165 480.004 123.338 480 148C480 263.28 297.36 386.64 256 413.12Z" fill="black"/>
</svg>
