<svg width="480" height="448" viewBox="0 0 480 448" fill="none" xmlns="http://www.w3.org/2000/svg">
<path d="M112 448C109.648 448 107.28 447.472 105.056 446.416C99.536 443.744 96 438.16 96 432V352H48C21.536 352 0 330.464 0 304V48C0 21.536 21.536 0 48 0H432C458.464 0 480 21.536 480 48V304C480 330.464 458.464 352 432 352H237.616L122 444.496C119.104 446.816 115.568 448 112 448ZM48 32C39.168 32 32 39.184 32 48V304C32 312.816 39.168 320 48 320H112C120.848 320 128 327.152 128 336V398.72L222 323.504C224.848 321.232 228.352 320 232 320H432C440.832 320 448 312.816 448 304V48C448 39.184 440.832 32 432 32H48Z" fill="black"/>
<path d="M368 160H112C103.152 160 96 152.832 96 144C96 135.168 103.152 128 112 128H368C376.848 128 384 135.168 384 144C384 152.832 376.848 160 368 160Z" fill="black"/>
<path d="M240 224H112C103.152 224 96 216.832 96 208C96 199.168 103.152 192 112 192H240C248.848 192 256 199.168 256 208C256 216.832 248.848 224 240 224Z" fill="black"/>
</svg>
