<svg width="512" height="320" viewBox="0 0 512 320" fill="none" xmlns="http://www.w3.org/2000/svg">
<path d="M256 320C88.508 320 5.468 173.984 2.016 167.772C-0.672 162.936 -0.672 157.06 2.016 152.224C5.468 146.016 88.508 0 256 0C423.492 0 506.532 146.016 509.984 152.228C512.672 157.064 512.672 162.94 509.984 167.776C506.532 173.984 423.492 320 256 320ZM34.828 159.976C53.86 188.82 128.584 288 256 288C383.82 288 458.212 188.9 477.172 160.024C458.14 131.18 383.416 32 256 32C128.18 32 53.788 131.1 34.828 159.976ZM256 256C203.064 256 160 212.936 160 160C160 107.064 203.064 64 256 64C308.936 64 352 107.064 352 160C352 212.936 308.936 256 256 256ZM256 96C220.712 96 192 124.712 192 160C192 195.288 220.712 224 256 224C291.288 224 320 195.288 320 160C320 124.712 291.288 96 256 96Z" fill="black"/>
</svg>
